# xmcd
#
# Track frame offsets: 
#        150
#        8489
#        22120
#        34237
#        46426
#        57325
#        69496
#        82375
#        94257
#        108211
#        124022
#        138816
#        152810
#        166187
#        179553
#        189990
#        203924
#        215575
#        228119
#        240248
#        254395
#        268671
#        280665
#        291672
#        304483
#        316955
#
# Disc length: 4380 seconds
#
# Revision: 0
# Processed by: cddbd v1.5.1PL0 Copyright (c) Steve Scherf et al.
# Submitted via: ExactAudioCopy v0.95a4
#
DISCID=79111a1a
DTITLE=George Morgan - Candy Kisses - Disc 2
DYEAR=1900
DGENRE=Country
TTITLE0=Somebody Robbed My Beehive
TTITLE1=I LOve No One But You
TTITLE2=Broken Candy Heart
TTITLE3=I Wish I May, I Wish I Might
TTITLE4=Tennessee Hillbilly Ghost
TTITLE5=Waltzing By The Ohio
TTITLE6=My Heart Keeps Telling Me
TTITLE7=Fresh Red Apple Cheeks
TTITLE8=My Baby Lied To Me
TTITLE9=Stranger In The Night
TTITLE10=Mansion Over The Hilltop
TTITLE11=Cry Of The Lamb
TTITLE12=You're A Little Doll
TTITLE13=Almost
TTITLE14=Every Little Thing Rolled Into One
TTITLE15=Be Sure You Know
TTITLE16=Whistle My Love
TTITLE17=One-Woman Man
TTITLE18=Please Believe
TTITLE19=Harbor Of Broken Hearts
TTITLE20=Will The Angels Let Me Play
TTITLE21=Can You Trust Me Again
TTITLE22=You're The Only One For Me (& Rosemary Clooney)
TTITLE23=Withered Roses (& Rosemary Clooney)
TTITLE24=You Love Me Just Enough To Hurt Me (& Rosemary Clooney)
TTITLE25=Grapevine Swing (& Rosemary Clooney)
EXTD=
EXTT0=
EXTT1=
EXTT2=
EXTT3=
EXTT4=
EXTT5=
EXTT6=
EXTT7=
EXTT8=
EXTT9=
EXTT10=
EXTT11=
EXTT12=
EXTT13=
EXTT14=
EXTT15=
EXTT16=
EXTT17=
EXTT18=
EXTT19=
EXTT20=
EXTT21=
EXTT22=
EXTT23=
EXTT24=
EXTT25=
PLAYORDER=
